Coordinates
version=1
nRows=65
nColumns=12
inDegrees=yes

Units are S.I. units (second, meters, Newtons, ...)
Angles are in degrees

endheader
time	SC_y	SC_z	SC_x	AC_y	AC_z	AC_x	GH_y	GH_z	GH_yy	EL_x	PS_y
       0.0              -13.73          24.79          31.43          47.77          4.638          2.246         -124.0          16.78          3.031          19.49          148.7
    0.0391              -13.73          24.79          31.42          47.78          4.636          2.247         -124.0          16.78          3.027          19.49          148.6
    0.0782              -13.73           24.8          31.42          47.78          4.634          2.248         -123.9          16.78          3.023          19.49          148.6
    0.1173              -13.73           24.8          31.42          47.78          4.631           2.25         -123.9          16.78          3.018          19.49          148.6
    0.1564              -13.73           24.8          31.42          47.78          4.629          2.251         -123.9          16.78          3.013          19.49          148.6
    0.1955              -13.73           24.8          31.42          47.79          4.626          2.253         -123.9          16.78          3.008          19.48          148.6
    0.2346              -13.73           24.8          31.41          47.79          4.623          2.254         -123.9          16.78          3.003          19.48          148.6
    0.2737              -13.73           24.8          31.41          47.79           4.62          2.256         -123.9          16.78          2.997          19.48          148.6
    0.3128              -13.73           24.8          31.41           47.8          4.617          2.258         -123.9          16.78          2.991          19.48          148.6
    0.3519              -13.73          24.81          31.41           47.8          4.613           2.26         -123.9          16.78          2.984          19.48          148.5
     0.391              -13.73          24.81           31.4           47.8           4.61          2.263         -123.9          16.78          2.977          19.47          148.5
    0.4301              -13.73          24.81           31.4          47.81          4.606          2.265         -123.9          16.78          2.969          19.47          148.5
    0.4692              -13.73          24.81           31.4          47.81          4.601          2.268         -123.8          16.78          2.961          19.47          148.5
    0.5083              -13.73          24.82          31.39          47.82          4.596           2.27         -123.8          16.78          2.952          19.47          148.5
    0.5474              -13.73          24.82          31.39          47.82          4.591          2.273         -123.8          16.78          2.943          19.46          148.4
    0.5865              -13.73          24.82          31.38          47.83          4.586          2.277         -123.8          16.78          2.932          19.46          148.4
    0.6256              -13.73          24.83          31.38          47.83           4.58           2.28         -123.8          16.78          2.921          19.46          148.4
    0.6647              -13.73          24.83          31.37          47.84          4.573          2.284         -123.8          16.78          2.908          19.45          148.4
    0.7038              -13.73          24.83          31.37          47.84          4.566          2.289         -123.7          16.78          2.895          19.45          148.3
    0.7429              -13.73          24.84          31.36          47.85          4.558          2.293         -123.7          16.78           2.88          19.45          148.3
     0.782              -13.73          24.84          31.35          47.86          4.549          2.298         -123.7          16.78          2.863          19.44          148.3
    0.8211              -13.73          24.85          31.34          47.87           4.54          2.304         -123.6          16.77          2.846          19.44          148.2
    0.8602              -13.73          24.85          31.34          47.88          4.529           2.31         -123.6          16.77          2.826          19.43          148.2
    0.8993              -13.73          24.86          31.33          47.89          4.517          2.317         -123.6          16.77          2.804          19.42          148.1
    0.9384              -13.73          24.87          31.32           47.9          4.504          2.325         -123.5          16.77          2.779          19.42          148.0
    0.9775              -13.73          24.88           31.3          47.92           4.49          2.334         -123.5          16.77          2.752          19.41          148.0
     1.017              -13.73          24.89          31.29          47.93          4.474          2.343         -123.4          16.77          2.722           19.4          147.9
     1.056              -13.74           24.9          31.28          47.95          4.455          2.354         -123.4          16.77          2.687          19.39          147.8
     1.095              -13.74          24.91          31.26          47.97          4.435          2.366         -123.3          16.77          2.648          19.38          147.7
     1.134              -13.74          24.92          31.24          47.99          4.411           2.38         -123.2          16.77          2.604          19.36          147.6
     1.173              -13.74          24.94          31.22          48.02          4.384          2.396         -123.1          16.77          2.554          19.35          147.5
     1.212              -13.74          24.95          31.19          48.05          4.354          2.414         -123.1          16.77          2.496          19.33          147.4
     1.251              -13.74          24.97          31.16          48.08          4.318          2.435         -122.9          16.76           2.43          19.31          147.2
      1.29              -13.74           25.0          31.13          48.12          4.277           2.46         -122.8          16.76          2.352          19.29          147.0
     1.329              -13.74          25.03          31.09          48.17          4.229          2.488         -122.7          16.76          2.262          19.26          146.8
     1.369              -13.74          25.06          31.04          48.22          4.172          2.522         -122.5          16.76          2.155          19.23          146.5
     1.408              -13.75           25.1          30.99          48.29          4.104          2.562         -122.3          16.75          2.028          19.19          146.2
     1.447              -13.75          25.14          30.92          48.37          4.024           2.61         -122.0          16.75          1.876          19.14          145.9
     1.486              -13.75           25.2          30.84          48.46          3.926          2.668         -121.7          16.74          1.692          19.09          145.4
     1.525              -13.76          25.27          30.74          48.58          3.806          2.739         -121.3          16.74          1.467          19.02          144.9
     1.564              -13.76          25.35          30.62          48.72          3.658          2.826         -120.8          16.73           1.19          18.94          144.2
     1.603              -13.77          25.46          30.47          48.89          3.474          2.936         -120.2          16.72          0.844          18.83          143.4
     1.642              -13.77          25.59          30.27          49.12          3.242          3.073         -119.5          16.71         0.4083           18.7          142.3
     1.681              -13.78          25.76          30.03           49.4          2.947          3.248         -118.6           16.7        -0.1457          18.54          141.0
      1.72              -13.79          25.97          29.72          49.76           2.57          3.471         -117.4          16.68        -0.8547          18.33          139.3
      1.76              -13.81          26.25          29.32          50.23          2.085          3.759         -115.8          16.65         -1.765          18.05          137.1
     1.799              -13.83           26.6          28.81          50.83          1.467          4.125         -113.8          16.62         -2.927           17.7          134.3
     1.838              -13.85          27.04          28.17          51.57         0.6886          4.586         -111.3          16.59         -4.388          17.27          130.7
     1.877              -13.88          27.58          27.38          52.49        -0.2595          5.148         -108.3          16.54         -6.169          16.73          126.4
     1.916              -13.91          28.21          26.48          53.54         -1.358          5.799         -104.8          16.49         -8.233          16.11          121.4
     1.955              -13.95          28.88          25.49          54.69         -2.548          6.505         -101.0          16.43         -10.47          15.44          116.0
     1.994              -13.99          29.56          24.51          55.83         -3.738           7.21          -97.2          16.37          -12.7          14.77          110.6
     2.033              -14.02          30.19           23.6          56.89         -4.837          7.861         -93.69          16.32         -14.77          14.15          105.6
     2.072              -14.05          30.73          22.82           57.8         -5.785          8.423         -90.66          16.27         -16.55          13.62          101.3
     2.111              -14.07          31.17          22.18          58.55         -6.563          8.884         -88.18          16.23         -18.01          13.18          97.81
     2.151              -14.09          31.52          21.67          59.15         -7.182          9.251          -86.2           16.2         -19.17          12.83          95.01
      2.19              -14.11           31.8          21.27          59.61         -7.667          9.538         -84.65          16.18         -20.08          12.56          92.81
     2.229              -14.12          32.01          20.96          59.97         -8.044          9.761         -83.45          16.16         -20.79          12.35          91.09
     2.268              -14.13          32.18          20.71          60.26         -8.339          9.936          -82.5          16.14         -21.35          12.18          89.76
     2.307              -14.13          32.31          20.52          60.48         -8.571          10.07         -81.76          16.13         -21.78          12.05           88.7
     2.346              -14.14          32.42          20.37          60.66         -8.755          10.18         -81.17          16.12         -22.13          11.94          87.87
     2.385              -14.14           32.5          20.25           60.8         -8.903          10.27          -80.7          16.12          -22.4          11.86           87.2
     2.424              -14.15          32.57          20.15          60.92         -9.022          10.34         -80.32          16.11         -22.63          11.79          86.65
     2.463              -14.15          32.62          20.07          61.01          -9.12           10.4         -80.01          16.11         -22.81          11.74          86.21
     2.502              -14.15          32.67           20.0          61.09         -9.201          10.45         -79.75           16.1         -22.97          11.69          85.84
